<?xml version="1.0" encoding="UTF-8" ?>
<!DOCTYPE svg PUBLIC "-//W3C//DTD SVG 1.1//EN" "http://www.w3.org/Graphics/SVG/1.1/DTD/svg11.dtd">
<svg width="895pt" height="895pt" viewBox="0 0 895 895" version="1.1" xmlns="http://www.w3.org/2000/svg">
<g id="#1b991bff">
<path fill="#1b991b" opacity="1.00" d=" M 468.61 136.58 C 590.46 110.92 720.73 126.71 832.69 181.32 C 841.28 186.16 851.36 187.83 859.57 193.41 C 864.01 196.38 867.16 201.50 867.00 206.94 C 866.77 224.28 867.87 241.62 867.11 258.95 C 866.03 342.01 843.15 424.38 802.92 496.95 C 743.34 605.20 645.92 693.03 530.14 737.18 C 388.05 792.02 224.63 782.29 86.85 719.21 C 80.62 716.60 74.83 713.04 68.46 710.80 C 67.58 727.97 69.14 746.28 61.14 762.10 C 50.55 743.56 52.61 721.50 49.92 701.11 C 36.63 692.28 20.70 685.96 11.26 672.36 C 24.88 673.21 37.38 679.26 49.67 684.67 C 47.49 573.34 76.98 461.00 136.77 366.78 C 174.14 307.23 224.02 255.68 281.99 215.95 C 338.19 177.59 402.04 150.57 468.61 136.58 M 467.18 181.21 C 372.79 206.11 285.05 256.89 217.93 327.96 C 127.90 422.88 76.74 551.59 69.54 681.64 C 69.55 685.55 68.38 689.71 69.49 693.50 C 212.25 754.15 380.64 757.96 523.05 694.17 C 639.70 641.85 735.37 545.05 787.38 428.37 C 817.29 360.89 833.62 287.08 833.11 213.20 C 719.77 160.58 587.96 149.63 467.18 181.21 Z" />
<path fill="#1b991b" opacity="1.00" d=" M 767.36 220.43 C 782.98 216.90 799.90 214.58 815.42 219.57 C 775.15 222.97 737.33 239.01 702.34 258.41 C 653.28 285.90 605.00 314.83 558.64 346.69 C 557.32 347.73 556.46 349.22 555.65 350.67 C 523.99 411.27 497.75 474.59 464.44 534.34 C 462.03 538.26 460.33 542.65 457.28 546.14 C 439.69 510.05 422.78 473.63 405.72 437.29 C 396.15 443.48 386.44 449.52 377.18 456.16 C 374.87 483.54 360.47 510.15 337.23 525.25 C 322.11 534.71 304.59 540.04 286.87 541.58 C 267.27 543.29 247.59 541.86 227.97 541.62 C 225.40 541.30 223.36 542.94 221.50 544.46 C 183.59 574.26 145.90 604.61 112.21 639.21 C 96.85 654.20 84.20 671.93 75.74 691.66 C 77.51 670.82 90.64 653.21 103.38 637.46 C 135.07 599.73 172.55 567.44 210.27 535.96 C 210.74 477.33 209.66 418.65 210.86 360.05 C 244.10 360.54 278.12 356.44 310.64 365.38 C 343.43 373.92 371.07 402.31 376.41 436.09 C 383.76 431.50 390.93 426.62 398.12 421.77 C 387.45 396.22 374.83 371.45 363.98 345.97 C 363.17 343.89 366.38 344.05 367.60 343.50 C 385.03 339.63 402.64 336.11 420.40 334.34 C 432.62 369.06 449.01 402.31 458.53 437.97 C 475.87 404.74 485.79 368.27 501.29 334.24 C 513.82 335.78 526.27 338.55 538.79 339.74 C 592.48 304.67 646.88 270.03 705.37 243.36 C 725.41 234.18 745.98 225.93 767.36 220.43 M 260.47 401.52 C 260.18 434.59 260.35 467.68 260.39 500.75 C 284.48 504.81 311.55 492.75 322.36 470.34 C 329.06 455.82 327.65 437.79 318.29 424.73 C 305.49 406.95 281.93 397.99 260.47 401.52 Z" />
<path fill="#1b991b" opacity="1.00" d=" M 561.00 401.01 C 585.36 363.94 635.93 344.88 678.01 361.01 C 680.32 361.49 680.42 364.15 680.84 366.01 C 683.25 381.35 685.56 396.71 688.08 412.04 C 666.31 396.19 633.96 396.73 613.34 414.28 C 605.10 421.23 599.52 431.26 598.13 441.96 C 596.59 457.44 599.27 474.76 611.05 485.95 C 631.35 505.79 665.75 506.18 688.31 489.84 C 685.11 504.84 688.92 521.13 682.29 535.35 C 678.33 543.60 668.55 544.36 660.61 545.50 C 613.35 553.77 560.93 523.20 549.19 475.81 C 544.20 450.67 546.15 422.69 561.00 401.01 Z" />
</g>
<g id="#67d367ff">
</g>
</svg>
